<?xml version="1.0" encoding="utf-8"?>
<svg xmlns="http://www.w3.org/2000/svg" viewBox="0 0 24 24" fill="#ffffff"><path d="M 9 4 C 7.34375 4 6 5.34375 6 7 C 6 8.65625 7.34375 10 9 10 C 10.65625 10 12 8.65625 12 7 C 12 5.34375 10.65625 4 9 4 Z M 9 6 C 9.550781 6 10 6.449219 10 7 C 10 7.550781 9.550781 8 9 8 C 8.449219 8 8 7.550781 8 7 C 8 6.449219 8.449219 6 9 6 Z M 8 10.84375 L 8 16 L 19 16 L 19 20 L 21 20 L 21 15 C 20.960938 13.96875 20.035156 13.761719 18.84375 13.5625 L 14 13 L 10 13 L 10 10.84375 C 9.679688 10.925781 9.347656 11 9 11 C 8.652344 11 8.320313 10.925781 8 10.84375 Z M 5 12 C 3.894531 12 3 12.894531 3 14 C 3 15.105469 3.894531 16 5 16 C 6.105469 16 7 15.105469 7 14 C 7 12.894531 6.105469 12 5 12 Z M 3 17 L 3 19 L 18 19 L 18 17 Z" fill="#ffffff"/></svg>
