<?xml version="1.0" encoding="UTF-8"?>
<svg xmlns="http://www.w3.org/2000/svg" xmlns:xlink="http://www.w3.org/1999/xlink" viewBox="0 0 24 24" version="1.1" fill="#ffffff"><g id="surface1" fill="#ffffff"><path style=" " d="M 12 2 C 6.5 2 2 6.5 2 12 C 2 17.5 6.5 22 12 22 C 14.507813 22 16.800781 21.070313 18.5625 19.53125 C 18.765625 19.433594 18.933594 19.265625 19.03125 19.0625 C 20.851563 17.25 22 14.757813 22 12 C 22 6.5 17.5 2 12 2 Z M 13.03125 4.0625 C 14.300781 4.230469 15.488281 4.710938 16.5 5.40625 C 15.28125 6.476563 13.3125 8.683594 13.0625 11.96875 C 12.722656 11.984375 12.367188 12 12 12 C 11.652344 12 11.320313 11.980469 11 11.96875 C 11.003906 9.21875 11.535156 7.21875 12.0625 5.90625 C 12.570313 4.644531 12.996094 4.105469 13.03125 4.0625 Z M 10.6875 4.125 C 10.535156 4.421875 10.375 4.773438 10.21875 5.15625 C 9.613281 6.652344 9.027344 8.863281 9 11.78125 C 8.640625 11.730469 8.285156 11.660156 7.96875 11.59375 C 7.8125 8.3125 7.109375 6.351563 6.90625 5.84375 C 7.964844 4.96875 9.277344 4.363281 10.6875 4.125 Z M 18 6.75 C 18.832031 7.703125 19.441406 8.863281 19.75 10.125 C 19.597656 10.257813 19.238281 10.535156 18.28125 10.9375 C 17.535156 11.253906 16.460938 11.542969 15.09375 11.75 C 15.429688 9.070313 17.144531 7.429688 18 6.75 Z M 5.375 7.5625 C 5.585938 8.328125 5.820313 9.417969 5.9375 11 C 5.871094 10.972656 5.78125 10.964844 5.71875 10.9375 C 4.761719 10.535156 4.402344 10.257813 4.25 10.125 C 4.476563 9.203125 4.859375 8.332031 5.375 7.5625 Z M 4 12.34375 C 4.273438 12.496094 4.578125 12.628906 4.9375 12.78125 C 5.238281 12.90625 5.601563 13.039063 5.96875 13.15625 C 5.925781 14.492188 5.667969 15.664063 5.40625 16.5 C 4.589844 15.304688 4.066406 13.878906 4 12.34375 Z M 20 12.34375 C 19.917969 14.285156 19.113281 16.058594 17.875 17.40625 C 17.027344 16.953125 15.46875 15.847656 15.125 13.78125 C 16.78125 13.554688 18.109375 13.183594 19.0625 12.78125 C 19.421875 12.628906 19.726563 12.496094 20 12.34375 Z M 7.96875 13.65625 C 8.308594 13.71875 8.683594 13.765625 9.0625 13.8125 C 9.242188 15.949219 9.730469 17.636719 10.21875 18.84375 C 10.375 19.226563 10.535156 19.578125 10.6875 19.875 C 9.292969 19.640625 7.992188 19.046875 6.9375 18.1875 C 7.269531 17.378906 7.835938 15.726563 7.96875 13.65625 Z M 11.09375 13.96875 C 11.386719 13.980469 11.6875 14 12 14 C 12.386719 14 12.765625 13.984375 13.125 13.96875 C 13.484375 16.429688 15.066406 17.9375 16.28125 18.75 C 15.320313 19.363281 14.207031 19.78125 13.03125 19.9375 C 12.996094 19.894531 12.570313 19.355469 12.0625 18.09375 C 11.667969 17.113281 11.269531 15.746094 11.09375 13.96875 Z " fill="#ffffff"/></g></svg>
