<?xml version="1.0" encoding="utf-8"?>
<svg xmlns="http://www.w3.org/2000/svg" viewBox="0 0 24 24" fill="#ffffff"><path d="M 3.9375 6 C 2.832031 6.039063 1.960938 6.957031 2 8.0625 C 2.039063 9.167969 2.957031 10.039063 4.0625 10 C 5.167969 9.960938 6.039063 9.042969 6 7.9375 C 5.960938 6.832031 5.042969 5.960938 3.9375 6 Z M 8.25 8.34375 C 7.527344 8.347656 6.910156 8.765625 6.5 9.65625 C 5.902344 10.949219 6.363281 12.46875 6.1875 14.34375 C 6.164063 14.59375 4 18 4 18 L 6 18 C 6 18 7.871094 15.484375 8 15 L 8.125 12.15625 C 8.125 12.15625 14.492188 14.765625 15 15 C 16.726563 15.800781 21 18 21 18 L 22 16 L 15 12 C 15 12 14.429688 10.308594 9 8.46875 C 8.742188 8.382813 8.492188 8.34375 8.25 8.34375 Z M 2 19 L 2 21 L 22 21 L 22 19 Z" fill="#ffffff"/></svg>
