<?xml version="1.0" encoding="utf-8"?>
<!-- Generator: Adobe Illustrator 24.0.3, SVG Export Plug-In . SVG Version: 6.00 Build 0)  -->
<svg version="1.1" id="Layer_1" xmlns="http://www.w3.org/2000/svg" xmlns:xlink="http://www.w3.org/1999/xlink" x="0px" y="0px"
	 viewBox="0 0 193.4 119.5" style="enable-background:new 0 0 193.4 119.5;" xml:space="preserve">
<style type="text/css">
	.st0{fill:#FFFFFF;}
</style>
<path class="st0" d="M73.9,88.7c-0.6-0.5-1-0.8-1.3-1.2l-0.1-0.1l-0.1-0.1c-4.5-5.2-9.1-10.6-13.5-15.8l-0.1-0.1l-0.1-0.1
	c-0.9-1.3-1.5-3-1.5-4.6V47.1H50v3.1H35.5V24.4h14.4v4H57V0h79.2l-8.3,8.3c-0.2,0.3-0.4,0.6-0.8,1l0,0c-3.8,4.2-7.8,8.6-11.7,12.8
	l-0.1,0.1c-1.3,1.3-3.4,2.2-5.3,2.2h-28v4.1h31.9l-7.1,8.3c-1,1.2-2,2.4-3,3.5c-1.3,1.6-2.6,3.1-4,4.6C98.1,47,95.5,47,94.6,47H81.9
	v47.7L73.9,88.7z"/>
<path class="st0" d="M91.1,44.7c0-2.7,1.1-4.4,1.9-5.5l0.1-0.2l0.1-0.2c2.2-2.5,4.4-5.1,6.6-7.6l0.1-0.1c1.5-1.8,3.5-2.6,5.8-2.6
	h38.1v-4.1h14.5v25.9h-14.4v-3.1h-28.1v4.4h33.8l-7.3,8.3c-0.3,0.4-0.6,0.7-0.9,1c-0.3,0.3-0.5,0.5-0.7,0.8l-0.1,0.1l-0.1,0.1
	c-1.8,1.9-3.5,3.9-5.3,5.8c-1.8,2-3.6,3.9-5.4,5.9l-0.1,0.1c-0.6,0.6-2.4,2.4-5.4,2.4l-0.1,0c-1.3,0-2.7,0-4,0c-1.4,0-2.7,0-4.1,0
	c-0.1,0-0.2,0-0.2,0v13.2c0,2.3-0.8,4.3-2.4,6.1L101.4,109l-0.1,0.1c-0.2,0.2-0.3,0.3-0.5,0.5c-0.3,0.4-0.7,0.8-1.2,1.3l-8.5,8.5
	V44.7z"/>
<path class="st0" d="M32.5,70.1c-1.6,0-3.2,0-4.7-0.1l-0.2,0c-4-0.3-6.5-3.1-6.5-7.2c0.1-8.3,0.1-16.7,0.1-24.7V13.8
	c0-4.3,2.6-7.1,6.8-7.4l0.1,0c1.5-0.1,3-0.1,4.5-0.1c1.5,0,3,0,4.4,0.1l0.2,0c4.1,0.3,6.8,3.1,6.8,7.3v49.1c0,5.3-3.6,7.2-6.8,7.2
	C35.6,70,34,70.1,32.5,70.1z"/>
<path class="st0" d="M161.4,70.2c-1.5,0-3,0-4.5-0.1l-0.1,0c-4.2-0.3-6.7-3-6.7-7.3v-49c0-4.3,2.6-7.1,6.8-7.4l0.1,0
	c1.5-0.1,2.9-0.1,4.4-0.1c1.5,0,2.9,0,4.4,0.1c3.2,0,7,2,7,7.4v49c0,3.3-1.8,7.2-6.9,7.3C164.3,70.1,162.8,70.2,161.4,70.2z"/>
<path class="st0" d="M18.9,70.2c-1,0-2,0-3-0.1c-4.2-0.3-6.8-3.1-6.8-7.3c0.1-8.2,0.1-16.6,0.1-24.6V13.6c0-4.4,2.7-7.2,6.9-7.3
	c0.9-0.1,1.9-0.1,2.9-0.1s1.9,0,2.9,0.1c4.2,0.1,6.9,2.9,6.9,7.2v49.3c0,4.2-2.6,7-6.8,7.3C21,70.1,20,70.2,18.9,70.2z"/>
<path class="st0" d="M174.1,70.3c-1,0-2,0-3-0.1c-4.2-0.3-6.8-3.1-6.8-7.3V13.5c0-4.2,2.5-6.9,6.7-7.2c1.1-0.1,2.1-0.1,3.2-0.1
	c1,0,2.1,0,3,0.1c4.2,0.3,6.7,3,6.7,7.2c0.1,8.2,0.1,16.6,0.1,24.7v24.7c0,4.2-2.6,7-6.8,7.3C176.2,70.2,175.2,70.3,174.1,70.3z"/>
<polygon class="st0" points="2.4,48.9 2.4,47.3 0,47.3 0,29.1 2.9,29.1 3.2,27.4 17.7,27.4 17.7,48.9 "/>
<path class="st0" d="M185.7,49c-1.7-0.1-3.3-0.1-5.1-0.1h-5V27.5H191v1.6h2.4v18.2h-2.9l-0.3,1.9L185.7,49z"/>
<path d="M62,42.1c-5.8,0-11.4,0-17,0c0,1.1,0,2,0,3.1c-1.5,0-3,0-4.5,0c0-5.3,0-10.5,0-15.8c1.4,0,2.8,0,4.4,0c0,1.3,0,2.6,0,4
	c5.8,0,11.4,0,17.1,0c0-9.5,0-18.9,0-28.4c20.7,0,41.3,0,62.1,0c-0.3,0.3-0.4,0.6-0.7,0.9c-3.9,4.3-7.8,8.6-11.7,12.8
	c-0.4,0.4-1.2,0.7-1.8,0.7c-10.5,0-21,0-31.5,0c-0.5,0-0.9,0-1.5,0c0,4.7,0,9.3,0,14.1c8.6,0,17.2,0,26,0c-2.5,2.9-4.7,5.6-7,8.2
	C95.7,42,95,42,94.6,42c-5.4,0-10.9,0-16.3,0c-0.4,0-0.9,0-1.4,0c0,14.2,0,28.3,0,42.7c-0.4-0.3-0.6-0.5-0.8-0.7
	c-4.5-5.2-9-10.5-13.5-15.8c-0.3-0.4-0.5-1.1-0.5-1.6c0-7.7,0-15.3,0-23C62,43.1,62,42.7,62,42.1z"/>
<path d="M110.9,71c0,6.2,0,12.3,0,18.3c0,1.1-0.3,1.9-1.1,2.8c-4,4.5-8,9-12,13.5c-0.5,0.5-0.9,1-1.7,1.8c0-0.8,0-1.2,0-1.6
	c0-20.4,0-40.8,0-61.1c0-1,0.3-1.7,0.9-2.5c2.3-2.6,4.5-5.2,6.7-7.8c0.6-0.7,1.2-0.9,2-0.9c13.8,0,27.7,0,41.5,0c0.5,0,1,0,1.6,0
	c0-1.5,0-2.8,0-4.1c1.6,0,3,0,4.5,0c0,5.3,0,10.5,0,15.9c-1.4,0-2.8,0-4.4,0c0-1,0-2,0-3.1c-12.7,0-25.3,0-38.1,0
	c0,4.8,0,9.5,0,14.4c9.2,0,18.3,0,27.8,0c-0.7,0.8-1.2,1.3-1.7,1.9c-3.6,3.9-7.1,7.8-10.7,11.7c-0.6,0.6-1.1,0.9-1.9,0.9
	c-4.1-0.1-8.2,0-12.2,0C111.9,71,111.5,71,110.9,71z"/>
<path d="M26.1,38.1c0-8.1,0-16.2,0-24.3c0-1.6,0.5-2.3,2.1-2.4c2.9-0.1,5.8-0.1,8.6,0c1.5,0.1,2.1,0.8,2.1,2.3c0,16.4,0,32.7,0,49.1
	c0,1.5-0.4,2.2-1.9,2.2c-3,0.1-6.1,0.1-9.1,0c-1.4-0.1-1.9-0.8-1.9-2.2C26.1,54.5,26.1,46.3,26.1,38.1z"/>
<path d="M155,38.2c0-8.1,0-16.3,0-24.4c0-1.6,0.5-2.3,2.1-2.4c2.8-0.1,5.7-0.1,8.5,0c1.6,0,2.1,0.7,2.1,2.4c0,16.3,0,32.7,0,49
	c0,1.6-0.4,2.3-2,2.3c-2.9,0.1-5.8,0.1-8.7,0c-1.6-0.1-2-0.7-2-2.3C155,54.5,155,46.3,155,38.2z"/>
<path d="M14.2,38.2c0-8.2,0-16.4,0-24.6c0-1.7,0.5-2.3,2.1-2.3c1.8-0.1,3.6-0.1,5.4,0c1.6,0,2.1,0.6,2.1,2.2c0,16.5,0,32.9,0,49.3
	c0,1.6-0.5,2.2-2.1,2.3c-1.8,0.1-3.7,0.1-5.5,0c-1.6-0.1-2.1-0.7-2.1-2.3C14.2,54.6,14.2,46.4,14.2,38.2z"/>
<path d="M179,38.2c0,8.2,0,16.5,0,24.7c0,1.6-0.5,2.2-2.1,2.3c-1.8,0.1-3.7,0.1-5.5,0c-1.6-0.1-2.1-0.7-2.1-2.3
	c0-16.5,0-32.9,0-49.4c0-1.6,0.5-2.1,2-2.2c1.9-0.1,3.8-0.1,5.6,0c1.5,0.1,2,0.7,2,2.2C179,21.7,179,29.9,179,38.2z"/>
<path d="M12.7,43.9c-1.8,0-3.5,0-5.3,0c0-0.5-0.1-1-0.1-1.6c-0.7,0-1.5,0-2.3,0c0-2.8,0-5.4,0-8.2c0.8,0,1.5,0,2.2,0
	c0.1-0.6,0.1-1.1,0.2-1.7c1.7,0,3.5,0,5.3,0C12.7,36.2,12.7,40,12.7,43.9z"/>
<path d="M180.6,43.9c0-3.8,0-7.6,0-11.4c1.8,0,3.6,0,5.4,0c0,0.5,0.1,1,0.1,1.6c0.7,0,1.5,0,2.3,0c0,2.8,0,5.4,0,8.2
	c-0.8,0-1.5,0-2.2,0c-0.1,0.6-0.1,1.1-0.2,1.7C184.2,43.9,182.4,43.9,180.6,43.9z"/>
</svg>
