<?xml version="1.0" encoding="utf-8"?>
<!-- Generator: Adobe Illustrator 24.0.0, SVG Export Plug-In . SVG Version: 6.00 Build 0)  -->
<svg version="1.1" id="Layer_1" xmlns="http://www.w3.org/2000/svg" xmlns:xlink="http://www.w3.org/1999/xlink" x="0px" y="0px"
	 viewBox="0 0 183.45 102.4" style="enable-background:new 0 0 183.45 102.4;" xml:space="preserve">
<g>
	<path d="M57.1,37.09c-5.79,0-11.37,0-17.04,0c0,1.06,0,2.04,0,3.13c-1.53,0-2.98,0-4.5,0c0-5.26,0-10.51,0-15.85
		c1.43,0,2.85,0,4.43,0c0,1.29,0,2.62,0,4.02c5.77,0,11.37,0,17.09,0c0-9.48,0-18.89,0-28.39c20.71,0,41.3,0,62.06,0
		c-0.27,0.35-0.45,0.62-0.68,0.87c-3.9,4.28-7.79,8.58-11.73,12.82c-0.39,0.42-1.15,0.68-1.75,0.69
		c-10.51,0.04-21.02,0.03-31.53,0.03c-0.47,0-0.94,0-1.48,0c0,4.72,0,9.33,0,14.09c8.63,0,17.19,0,25.99,0
		c-2.46,2.88-4.72,5.56-7.04,8.19c-0.25,0.28-0.86,0.32-1.31,0.32c-5.43,0.02-10.87,0.01-16.31,0.02c-0.43,0-0.86,0-1.38,0
		c0,14.23,0,28.32,0,42.66c-0.39-0.34-0.63-0.51-0.82-0.72c-4.5-5.24-9.01-10.48-13.47-15.76c-0.34-0.4-0.52-1.07-0.53-1.62
		c-0.03-7.67-0.02-15.34-0.02-23.01C57.1,38.11,57.1,37.64,57.1,37.09z"/>
	<path d="M106,65.98c0,6.24-0.03,12.27,0.02,18.3c0.01,1.12-0.31,1.93-1.06,2.76c-4.04,4.48-8.01,9.02-12.01,13.54
		c-0.46,0.52-0.94,1.03-1.65,1.81c0-0.76,0-1.18,0-1.6c0-20.37,0.01-40.75-0.02-61.12c0-1,0.29-1.73,0.93-2.46
		c2.27-2.58,4.51-5.19,6.7-7.83c0.57-0.68,1.15-0.94,2.04-0.94c13.83,0.03,27.66,0.02,41.48,0.02c0.51,0,1.01,0,1.65,0
		c0-1.45,0-2.75,0-4.11c1.55,0,2.97,0,4.46,0c0,5.29,0,10.54,0,15.88c-1.42,0-2.84,0-4.4,0c0-0.98,0-2,0-3.11
		c-12.74,0-25.35,0-38.05,0c0,4.76,0,9.52,0,14.42c9.17,0,18.33,0,27.8,0c-0.68,0.78-1.16,1.34-1.66,1.88
		c-3.55,3.9-7.12,7.78-10.65,11.7c-0.55,0.61-1.1,0.88-1.95,0.87c-4.08-0.05-8.15-0.02-12.23-0.02C107,65.98,106.57,65.98,106,65.98
		z"/>
	<path d="M21.16,33.03c0-8.11,0-16.21,0-24.32c0-1.6,0.54-2.33,2.14-2.38c2.87-0.09,5.75-0.09,8.62,0c1.55,0.05,2.1,0.79,2.1,2.31
		c0,16.37,0,32.74,0,49.11c0,1.45-0.44,2.15-1.91,2.21c-3.03,0.12-6.06,0.12-9.09-0.01c-1.44-0.06-1.86-0.77-1.86-2.25
		C21.16,49.48,21.16,41.26,21.16,33.03z"/>
	<path d="M150.11,33.12c0-8.14,0-16.29,0-24.43c0-1.63,0.51-2.31,2.13-2.37c2.83-0.09,5.67-0.09,8.5,0
		c1.63,0.05,2.15,0.73,2.15,2.36c0,16.33,0,32.65,0,48.98c0,1.63-0.4,2.27-2.02,2.33c-2.91,0.12-5.82,0.12-8.73,0
		c-1.61-0.07-2.03-0.72-2.03-2.32C150.11,49.49,150.11,41.3,150.11,33.12z"/>
	<path d="M9.33,33.14c0-8.19,0-16.37,0-24.56c0-1.69,0.49-2.27,2.15-2.32c1.8-0.05,3.6-0.06,5.39,0c1.64,0.05,2.13,0.6,2.13,2.21
		c0,16.45,0,32.9,0,49.35c0,1.61-0.49,2.2-2.08,2.27c-1.83,0.08-3.68,0.08-5.51,0c-1.58-0.07-2.08-0.68-2.08-2.28
		C9.33,49.59,9.33,41.37,9.33,33.14z"/>
	<path d="M174.11,33.14c0,8.23,0,16.45,0,24.68c0,1.6-0.48,2.2-2.08,2.27c-1.83,0.08-3.68,0.09-5.51,0.01
		c-1.6-0.07-2.08-0.66-2.08-2.27c0-16.45,0-32.9,0-49.35c0-1.57,0.47-2.14,2.01-2.2c1.87-0.07,3.75-0.07,5.63,0
		c1.52,0.05,2.03,0.65,2.03,2.19C174.11,16.69,174.11,24.92,174.11,33.14z"/>
	<path d="M7.75,38.9c-1.79,0-3.53,0-5.33,0c-0.04-0.53-0.07-1-0.12-1.61c-0.74,0-1.47,0-2.3,0c0-2.79,0-5.43,0-8.17
		c0.75,0,1.46,0,2.25,0c0.07-0.59,0.12-1.09,0.19-1.67c1.73,0,3.47,0,5.32,0C7.75,31.21,7.75,34.98,7.75,38.9z"/>
	<path d="M175.65,38.88c0-3.83,0-7.57,0-11.41c1.78,0,3.55,0,5.37,0c0.03,0.49,0.07,0.96,0.11,1.57c0.74,0,1.48,0,2.31,0
		c0,2.78,0,5.42,0,8.17c-0.76,0-1.46,0-2.25,0c-0.06,0.59-0.12,1.09-0.18,1.68C179.27,38.88,177.53,38.88,175.65,38.88z"/>
</g>
</svg>
