<?xml version="1.0" encoding="utf-8"?>
<!-- Generator: Adobe Illustrator 24.0.3, SVG Export Plug-In . SVG Version: 6.00 Build 0)  -->
<svg version="1.1" id="Layer_1" xmlns="http://www.w3.org/2000/svg" xmlns:xlink="http://www.w3.org/1999/xlink" x="0px" y="0px"
	 viewBox="0 0 185.8 185.8" style="enable-background:new 0 0 185.8 185.8;" xml:space="preserve">
<style type="text/css">
	.st0{fill:#FFFFFF;}
</style>
<circle class="st0" cx="92.9" cy="92.9" r="92.9"/>
<g>
	<path d="M58.2,89.4c-5.8,0-11.4,0-17,0c0,1.1,0,2,0,3.1c-1.5,0-3,0-4.5,0c0-5.3,0-10.5,0-15.8c1.4,0,2.8,0,4.4,0c0,1.3,0,2.6,0,4
		c5.8,0,11.4,0,17.1,0c0-9.5,0-18.9,0-28.4c20.7,0,41.3,0,62.1,0c-0.3,0.3-0.4,0.6-0.7,0.9c-3.9,4.3-7.8,8.6-11.7,12.8
		c-0.4,0.4-1.2,0.7-1.8,0.7c-10.5,0-21,0-31.5,0c-0.5,0-0.9,0-1.5,0c0,4.7,0,9.3,0,14.1c8.6,0,17.2,0,26,0c-2.5,2.9-4.7,5.6-7,8.2
		c-0.2,0.3-0.9,0.3-1.3,0.3c-5.4,0-10.9,0-16.3,0c-0.4,0-0.9,0-1.4,0c0,14.2,0,28.3,0,42.7c-0.4-0.3-0.6-0.5-0.8-0.7
		c-4.5-5.2-9-10.5-13.5-15.8c-0.3-0.4-0.5-1.1-0.5-1.6c0-7.7,0-15.3,0-23C58.2,90.4,58.2,90,58.2,89.4z"/>
	<path d="M107.1,118.3c0,6.2,0,12.3,0,18.3c0,1.1-0.3,1.9-1.1,2.8c-4,4.5-8,9-12,13.5c-0.5,0.5-0.9,1-1.7,1.8c0-0.8,0-1.2,0-1.6
		c0-20.4,0-40.8,0-61.1c0-1,0.3-1.7,0.9-2.5c2.3-2.6,4.5-5.2,6.7-7.8c0.6-0.7,1.2-0.9,2-0.9c13.8,0,27.7,0,41.5,0c0.5,0,1,0,1.6,0
		c0-1.5,0-2.8,0-4.1c1.6,0,3,0,4.5,0c0,5.3,0,10.5,0,15.9c-1.4,0-2.8,0-4.4,0c0-1,0-2,0-3.1c-12.7,0-25.3,0-38.1,0
		c0,4.8,0,9.5,0,14.4c9.2,0,18.3,0,27.8,0c-0.7,0.8-1.2,1.3-1.7,1.9c-3.6,3.9-7.1,7.8-10.7,11.7c-0.6,0.6-1.1,0.9-1.9,0.9
		c-4.1-0.1-8.2,0-12.2,0C108.1,118.3,107.7,118.3,107.1,118.3z"/>
	<path d="M22.3,85.4c0-8.1,0-16.2,0-24.3c0-1.6,0.5-2.3,2.1-2.4c2.9-0.1,5.8-0.1,8.6,0c1.5,0.1,2.1,0.8,2.1,2.3
		c0,16.4,0,32.7,0,49.1c0,1.5-0.4,2.2-1.9,2.2c-3,0.1-6.1,0.1-9.1,0c-1.4-0.1-1.9-0.8-1.9-2.2C22.3,101.8,22.3,93.6,22.3,85.4z"/>
	<path d="M151.2,85.5c0-8.1,0-16.3,0-24.4c0-1.6,0.5-2.3,2.1-2.4c2.8-0.1,5.7-0.1,8.5,0c1.6,0,2.1,0.7,2.1,2.4c0,16.3,0,32.7,0,49
		c0,1.6-0.4,2.3-2,2.3c-2.9,0.1-5.8,0.1-8.7,0c-1.6-0.1-2-0.7-2-2.3C151.2,101.8,151.2,93.6,151.2,85.5z"/>
	<path d="M10.4,85.5c0-8.2,0-16.4,0-24.6c0-1.7,0.5-2.3,2.1-2.3c1.8-0.1,3.6-0.1,5.4,0c1.6,0,2.1,0.6,2.1,2.2c0,16.5,0,32.9,0,49.3
		c0,1.6-0.5,2.2-2.1,2.3c-1.8,0.1-3.7,0.1-5.5,0c-1.6-0.1-2.1-0.7-2.1-2.3C10.4,101.9,10.4,93.7,10.4,85.5z"/>
	<path d="M175.2,85.5c0,8.2,0,16.5,0,24.7c0,1.6-0.5,2.2-2.1,2.3c-1.8,0.1-3.7,0.1-5.5,0c-1.6-0.1-2.1-0.7-2.1-2.3
		c0-16.5,0-32.9,0-49.4c0-1.6,0.5-2.1,2-2.2c1.9-0.1,3.8-0.1,5.6,0c1.5,0.1,2,0.7,2,2.2C175.2,69,175.2,77.2,175.2,85.5z"/>
	<path d="M8.9,91.2c-1.8,0-3.5,0-5.3,0c0-0.5-0.1-1-0.1-1.6c-0.7,0-1.5,0-2.3,0c0-2.8,0-5.4,0-8.2c0.8,0,1.5,0,2.2,0
		c0.1-0.6,0.1-1.1,0.2-1.7c1.7,0,3.5,0,5.3,0C8.9,83.5,8.9,87.3,8.9,91.2z"/>
	<path d="M176.8,91.2c0-3.8,0-7.6,0-11.4c1.8,0,3.6,0,5.4,0c0,0.5,0.1,1,0.1,1.6c0.7,0,1.5,0,2.3,0c0,2.8,0,5.4,0,8.2
		c-0.8,0-1.5,0-2.2,0c-0.1,0.6-0.1,1.1-0.2,1.7C180.4,91.2,178.6,91.2,176.8,91.2z"/>
</g>
</svg>
