<?xml version="1.0" encoding="utf-8"?>
<!-- Generator: Adobe Illustrator 24.0.0, SVG Export Plug-In . SVG Version: 6.00 Build 0)  -->
<svg version="1.1" id="Layer_1" xmlns="http://www.w3.org/2000/svg" xmlns:xlink="http://www.w3.org/1999/xlink" x="0px" y="0px"
	 viewBox="0 0 183.45 125.89" style="enable-background:new 0 0 183.45 125.89;" xml:space="preserve">
<g>
	<path d="M57.1,60.59c-5.79,0-11.37,0-17.04,0c0,1.06,0,2.04,0,3.13c-1.53,0-2.98,0-4.5,0c0-5.26,0-10.51,0-15.85
		c1.43,0,2.85,0,4.43,0c0,1.29,0,2.62,0,4.02c5.77,0,11.37,0,17.09,0c0-9.48,0-18.89,0-28.39c20.71,0,41.3,0,62.06,0
		c-0.27,0.35-0.45,0.62-0.68,0.87c-3.9,4.28-7.79,8.58-11.73,12.82c-0.39,0.42-1.15,0.68-1.75,0.69
		c-10.51,0.04-21.02,0.03-31.53,0.03c-0.47,0-0.94,0-1.48,0c0,4.72,0,9.33,0,14.09c8.63,0,17.19,0,25.99,0
		c-2.46,2.88-4.72,5.56-7.04,8.19c-0.25,0.28-0.86,0.32-1.31,0.32c-5.43,0.02-10.87,0.01-16.31,0.02c-0.43,0-0.86,0-1.38,0
		c0,14.23,0,28.32,0,42.66c-0.39-0.34-0.63-0.51-0.82-0.72c-4.5-5.24-9.01-10.48-13.47-15.76c-0.34-0.4-0.52-1.07-0.53-1.62
		c-0.03-7.67-0.02-15.34-0.02-23.01C57.1,61.6,57.1,61.13,57.1,60.59z"/>
	<path d="M106,89.48c0,6.24-0.03,12.27,0.02,18.3c0.01,1.12-0.31,1.93-1.06,2.76c-4.04,4.48-8.01,9.02-12.01,13.54
		c-0.46,0.52-0.94,1.03-1.65,1.81c0-0.76,0-1.18,0-1.6c0-20.37,0.01-40.75-0.02-61.12c0-1,0.29-1.73,0.93-2.46
		c2.27-2.58,4.51-5.19,6.7-7.83c0.57-0.68,1.15-0.94,2.04-0.94c13.83,0.03,27.66,0.02,41.48,0.02c0.51,0,1.01,0,1.65,0
		c0-1.45,0-2.75,0-4.11c1.55,0,2.97,0,4.46,0c0,5.29,0,10.54,0,15.88c-1.42,0-2.84,0-4.4,0c0-0.98,0-2,0-3.11
		c-12.74,0-25.35,0-38.05,0c0,4.76,0,9.52,0,14.42c9.17,0,18.33,0,27.8,0c-0.68,0.78-1.16,1.34-1.66,1.88
		c-3.55,3.9-7.12,7.78-10.65,11.7c-0.55,0.61-1.1,0.88-1.95,0.87c-4.08-0.05-8.15-0.02-12.23-0.02C107,89.48,106.57,89.48,106,89.48
		z"/>
	<path d="M21.16,56.52c0-8.11,0-16.21,0-24.32c0-1.6,0.54-2.33,2.14-2.38c2.87-0.09,5.75-0.09,8.62,0c1.55,0.05,2.1,0.79,2.1,2.31
		c0,16.37,0,32.74,0,49.11c0,1.45-0.44,2.15-1.91,2.21c-3.03,0.12-6.06,0.12-9.09-0.01c-1.44-0.06-1.86-0.77-1.86-2.25
		C21.16,72.97,21.16,64.75,21.16,56.52z"/>
	<path d="M150.11,56.61c0-8.14,0-16.29,0-24.43c0-1.63,0.51-2.31,2.13-2.37c2.83-0.09,5.67-0.09,8.5,0
		c1.63,0.05,2.15,0.73,2.15,2.36c0,16.33,0,32.65,0,48.98c0,1.63-0.4,2.27-2.02,2.33c-2.91,0.12-5.82,0.12-8.73,0
		c-1.61-0.07-2.03-0.72-2.03-2.32C150.11,72.98,150.11,64.8,150.11,56.61z"/>
	<path d="M9.33,56.63c0-8.19,0-16.37,0-24.56c0-1.69,0.49-2.27,2.15-2.32c1.8-0.05,3.6-0.06,5.39,0c1.64,0.05,2.13,0.6,2.13,2.21
		c0,16.45,0,32.9,0,49.35c0,1.61-0.49,2.2-2.08,2.27c-1.83,0.08-3.68,0.08-5.51,0c-1.58-0.07-2.08-0.68-2.08-2.28
		C9.33,73.08,9.33,64.86,9.33,56.63z"/>
	<path d="M174.11,56.63c0,8.23,0,16.45,0,24.68c0,1.6-0.48,2.2-2.08,2.27c-1.83,0.08-3.68,0.09-5.51,0.01
		c-1.6-0.07-2.08-0.66-2.08-2.27c0-16.45,0-32.9,0-49.35c0-1.57,0.47-2.14,2.01-2.2c1.87-0.07,3.75-0.07,5.63,0
		c1.52,0.05,2.03,0.65,2.03,2.19C174.11,40.18,174.11,48.41,174.11,56.63z"/>
	<path d="M7.75,62.39c-1.79,0-3.53,0-5.33,0c-0.04-0.53-0.07-1-0.12-1.61c-0.74,0-1.47,0-2.3,0c0-2.79,0-5.43,0-8.17
		c0.75,0,1.46,0,2.25,0c0.07-0.59,0.12-1.09,0.19-1.67c1.73,0,3.47,0,5.32,0C7.75,54.7,7.75,58.47,7.75,62.39z"/>
	<path d="M175.65,62.37c0-3.83,0-7.57,0-11.41c1.78,0,3.55,0,5.37,0c0.03,0.49,0.07,0.96,0.11,1.57c0.74,0,1.48,0,2.31,0
		c0,2.78,0,5.42,0,8.17c-0.76,0-1.46,0-2.25,0c-0.06,0.59-0.12,1.09-0.18,1.68C179.27,62.37,177.53,62.37,175.65,62.37z"/>
	<path d="M133.52,0.84c0,5.14,0,10.2,0,15.58c-3.43-4.54-6.7-8.86-9.96-13.18c-0.09,0.03-0.18,0.06-0.28,0.1c0,1.5,0,2.99,0,4.49
		c0,2.32,0.01,4.63-0.02,6.95c0,0.27-0.27,0.54-0.41,0.82c-0.18-0.28-0.51-0.55-0.51-0.83c-0.03-4.79-0.02-9.58-0.02-14.77
		c3.48,4.6,6.75,8.93,10.2,13.5c0.04-0.57,0.09-0.89,0.09-1.2c0.01-3.51,0-7.03,0.01-10.54C132.61,1.22,132.45,0.51,133.52,0.84z"/>
	<path d="M72.13,0.8c1.79,0,3.45-0.18,5.04,0.05c1.9,0.28,3.06,1.61,3.51,3.49c0.38,1.6-0.32,3.49-1.65,4.46
		c-0.32,0.23-0.67,0.43-1.11,0.71c1.53,2,3.03,3.98,4.53,5.95c-0.09,0.11-0.18,0.22-0.27,0.34c-0.44-0.28-0.99-0.48-1.31-0.86
		c-1.1-1.32-2.17-2.67-3.15-4.08c-0.59-0.85-1.27-1.23-2.3-1.11c-0.7,0.08-1.42,0.02-2.33,0.02c0,1.76,0.02,3.42-0.02,5.07
		c-0.01,0.26-0.31,0.51-0.47,0.76c-0.16-0.22-0.45-0.44-0.45-0.66C72.12,10.26,72.13,5.6,72.13,0.8z M73.16,8.71
		c1.35,0,2.62,0.11,3.87-0.03c1.54-0.17,2.77-1.79,2.8-3.41c0.03-1.65-1.23-3.32-2.83-3.5c-1.24-0.14-2.52-0.03-3.84-0.03
		C73.16,4.07,73.16,6.32,73.16,8.71z"/>
	<path d="M44.62,6.48c3.23,0,6.32,0,9.55,0c0-1.88,0-3.74,0-5.6c0.12-0.07,0.25-0.14,0.37-0.21c0.2,0.26,0.58,0.51,0.59,0.77
		c0.04,4.47,0.04,8.95,0,13.42c0,0.28-0.36,0.55-0.54,0.83c-0.12-0.06-0.25-0.13-0.37-0.19c0-2.62,0-5.24,0-7.94
		c-3.21,0-6.3,0-9.53,0c0,2.62,0,5.23,0,7.85c-0.12,0.08-0.24,0.16-0.35,0.24c-0.22-0.24-0.63-0.48-0.63-0.72
		c-0.04-4.51-0.04-9.03,0-13.54c0-0.25,0.35-0.51,0.54-0.76c0.13,0.06,0.26,0.13,0.39,0.19C44.62,2.69,44.62,4.55,44.62,6.48z"/>
	<path d="M162.1,14.43c0.44-0.05,0.88-0.18,1.31-0.14c1.38,0.11,2.76,0.39,4.15,0.39c1.67,0,3.13-1.18,3.41-2.52
		c0.33-1.56-0.54-3-2.23-3.43c-1.08-0.27-2.21-0.3-3.31-0.47c-1.75-0.27-3.05-1.48-3.3-3.02c-0.27-1.72,0.48-3.16,2.19-3.99
		c2.18-1.07,4.42-0.84,6.65-0.16c0.2,0.06,0.3,0.43,0.44,0.65c-0.27,0.08-0.54,0.25-0.79,0.22c-1.18-0.12-2.36-0.41-3.54-0.41
		c-0.8,0-1.65,0.3-2.39,0.64c-1.1,0.5-1.75,1.38-1.61,2.67c0.13,1.17,1.09,2.18,2.34,2.41c0.94,0.17,1.91,0.19,2.85,0.37
		c2.39,0.45,3.81,1.93,3.82,3.93c0.01,1.93-1.35,3.48-3.65,3.98c-2.16,0.46-4.25,0.1-6.28-0.66
		C162.13,14.72,162.11,14.58,162.1,14.43z"/>
	<path d="M138.07,6.32c1.36,0,2.71-0.03,4.06,0.02c0.28,0.01,0.56,0.33,0.83,0.5c-0.27,0.14-0.54,0.4-0.81,0.41
		c-1.35,0.04-2.7,0.02-4.22,0.02c0,2.36-0.02,4.62,0.04,6.88c0,0.18,0.56,0.48,0.87,0.48c2.07,0.04,4.15,0.01,6.23,0.04
		c0.31,0.01,0.62,0.27,0.93,0.41c-0.28,0.17-0.57,0.49-0.85,0.5c-2.67,0.04-5.34,0.02-8.1,0.02c0-4.97,0-9.85,0-14.88
		c2.65,0,5.27-0.01,7.89,0.02c0.18,0,0.36,0.29,0.55,0.44c-0.23,0.16-0.45,0.45-0.68,0.45c-1.64,0.04-3.27,0.02-4.91,0.02
		c-0.56,0-1.11,0-1.82,0C138.07,3.19,138.07,4.65,138.07,6.32z"/>
	<path d="M148.43,14.35c0.43-0.03,0.86-0.11,1.28-0.07c1.3,0.12,2.6,0.36,3.91,0.39c0.65,0.02,1.34-0.21,1.94-0.48
		c1.26-0.57,1.88-1.72,1.77-2.98c-0.1-1.14-0.96-2.18-2.26-2.49c-1.08-0.25-2.21-0.3-3.31-0.47c-1.76-0.27-3.06-1.47-3.3-3
		c-0.27-1.75,0.47-3.13,2.16-4.01c1.95-1.01,5.13-0.96,7.22,0.46c-0.37,0.07-0.78,0.28-1.11,0.2c-1.82-0.49-3.62-0.67-5.39,0.09
		c-2.19,0.93-2.7,3.38-0.9,4.64c0.73,0.51,1.77,0.61,2.69,0.84c0.5,0.12,1.04,0.08,1.54,0.18c2.27,0.45,3.61,1.83,3.7,3.76
		c0.09,1.98-1.18,3.53-3.48,4.08c-2.2,0.53-4.33,0.15-6.41-0.61C148.45,14.7,148.44,14.53,148.43,14.35z"/>
	<path d="M59.96,15.61c0-5.02,0-9.85,0-14.78c2.76,0,5.49,0,8.22,0c0.09,0.8,0.09,0.83-0.67,0.84c-2.15,0.02-4.31,0.01-6.55,0.01
		c0,1.53,0,2.99,0,4.59c1.57,0,3.19,0,4.78,0c0.14,0.98,0.14,1-0.58,1.01c-1.39,0.02-2.77,0.01-4.22,0.01c0,2.51,0,4.88,0,7.38
		c2.65,0,5.23,0,7.8,0c0.07,0.12,0.13,0.25,0.2,0.37c-0.25,0.19-0.49,0.55-0.74,0.55C65.5,15.62,62.79,15.61,59.96,15.61z"/>
	<path d="M38.98,13.03c0.2,0.28,0.35,0.5,0.5,0.72c-3.01,2.69-7.48,2.58-10.32-0.22c-2.82-2.78-3.04-7.3-0.49-10.33
		C31.25,0.13,35.69-0.35,39,2.09c-0.34,0.74-0.77,0.5-1.33,0.21c-4.08-2.11-8.81,0.11-9.66,4.52c-0.54,2.79,0.39,5.07,2.67,6.7
		c2.25,1.61,4.67,1.66,7.09,0.3C38.15,13.6,38.51,13.34,38.98,13.03z"/>
	<path d="M11.51,0.73c2.51,0,5.05-0.01,7.59,0.02c0.17,0,0.34,0.3,0.51,0.46c-0.23,0.15-0.45,0.43-0.69,0.43
		c-1.71,0.04-3.43,0.02-5.15,0.02c-0.43,0-0.86,0-1.37,0c0,1.61,0,3.1,0,4.71c1.63,0,3.18-0.03,4.73,0.02
		c0.29,0.01,0.57,0.33,0.86,0.5c-0.28,0.14-0.55,0.39-0.83,0.4c-1.27,0.05-2.55,0.06-3.83,0.01c-0.79-0.03-1.04,0.26-1.03,1.03
		c0.04,2.15,0.03,4.31-0.01,6.46c0,0.26-0.29,0.52-0.45,0.78c-0.17-0.25-0.49-0.5-0.49-0.75c-0.03-4.55-0.01-9.09,0-13.64
		C11.36,1.1,11.43,0.99,11.51,0.73z"/>
	<path d="M95.54,1.67c0,1.62,0,3.08,0,4.71c1.6,0,3.14-0.03,4.68,0.02c0.33,0.01,0.64,0.33,0.96,0.51c-0.32,0.14-0.63,0.39-0.95,0.4
		c-1.54,0.04-3.09,0.02-4.76,0.02c0,2.17,0,4.15,0,6.14c0,0.44,0.05,0.89-0.02,1.31c-0.05,0.28-0.28,0.54-0.43,0.8
		c-0.17-0.28-0.36-0.56-0.51-0.86c-0.05-0.1-0.01-0.24-0.01-0.36c0-4.15,0-8.31,0-12.46c0-0.35,0.04-0.7,0.07-1.18
		c2.6,0,5.15-0.01,7.69,0.02c0.17,0,0.33,0.32,0.5,0.49c-0.24,0.14-0.48,0.4-0.73,0.41c-1.68,0.04-3.36,0.02-5.03,0.02
		C96.54,1.67,96.07,1.67,95.54,1.67z"/>
	<path d="M114.65,1.67c0,4.66,0,9.19,0,13.71c-0.97,0.23-0.99,0.23-0.99-0.75c-0.01-3.83,0-7.66,0-11.5c0-0.43,0-0.86,0-1.46
		c-1.73,0-3.36,0.03-4.98-0.02c-0.33-0.01-0.65-0.32-0.98-0.49c0.31-0.14,0.62-0.41,0.94-0.41c3.63-0.03,7.27-0.03,10.9,0
		c0.3,0,0.6,0.3,0.89,0.46c-0.31,0.15-0.62,0.43-0.93,0.44C117.92,1.7,116.33,1.67,114.65,1.67z"/>
	<path d="M23.47,8.19c0,2.16,0.02,4.31-0.02,6.46c-0.01,0.32-0.34,0.63-0.53,0.94c-0.16-0.3-0.45-0.61-0.45-0.91
		c-0.03-4.35-0.03-8.7,0.01-13.05c0-0.3,0.31-0.59,0.48-0.88c0.17,0.29,0.49,0.57,0.5,0.86C23.48,3.8,23.47,6,23.47,8.19z"/>
	<path d="M104.38,0.85c1-0.34,0.92,0.3,0.92,0.87c0,3.55,0,7.1,0,10.65c0,0.84,0.05,1.68-0.03,2.51c-0.03,0.29-0.38,0.55-0.58,0.82
		c-0.1-0.07-0.21-0.13-0.31-0.2C104.38,10.65,104.38,5.79,104.38,0.85z"/>
</g>
</svg>
